<?xml version="1.0" encoding="UTF-8"?>
<svg id="Warstwa_2" data-name="Warstwa 2" xmlns="http://www.w3.org/2000/svg" xmlns:xlink="http://www.w3.org/1999/xlink" viewBox="0 0 284.97 218.47">
  <defs>
    <style>
      .cls-1, .cls-2 {
        fill: #fff;
      }

      .cls-1, .cls-3, .cls-4, .cls-5, .cls-6 {
        fill-rule: evenodd;
      }

      .cls-1, .cls-6 {
        stroke: #6e707e;
        stroke-width: 5px;
      }

      .cls-7 {
        fill: none;
      }

      .cls-8 {
        fill: #36687f;
      }

      .cls-3, .cls-6 {
        fill: #cad1e3;
      }

      .cls-4, .cls-9 {
        fill: #478598;
      }

      .cls-5 {
        fill: #f18c05;
      }

      .cls-10 {
        fill: #7fc5de;
      }

      .cls-11 {
        fill: #39a5cc;
      }

      .cls-12 {
        clip-path: url(#clippath);
      }
    </style>
    <clipPath id="clippath">
      <rect class="cls-7" x="109" y="184.95" width="66.96" height="33.52"/>
    </clipPath>
  </defs>
  <g id="Warstwa_1-2" data-name="Warstwa 1">
    <g>
      <path class="cls-2" d="M144.85,16.82c3.56-.45,7.26-.22,10.66.99,2.57.93,4.99,2.52,6.46,4.87.93,1.47,1.39,3.21,1.37,4.95-.02,1.59.17,3.26-.55,4.73-1.32,2.83-4.21,4.6-7.15,5.35,2.65.54,5.29,1.67,7.15,3.69,1.42,1.49,2.24,3.54,2.21,5.61-.03,2,.2,4.06-.45,6-.86,2.76-2.93,5.01-5.39,6.47-3.46,2.08-7.59,2.81-11.59,2.7-3.35-.1-6.79-.68-9.74-2.35-2.42-1.33-4.39-3.46-5.48-6.01-.63-1.41-.99-2.93-1.17-4.47,3.4,0,6.81,0,10.21,0,.18,1.47.87,2.91,2.06,3.81,1.54,1.19,3.6,1.41,5.48,1.25,1.69-.15,3.45-.86,4.38-2.35.88-1.33.89-2.99.85-4.53.05-1.42-.46-2.9-1.55-3.85-1.34-1.17-3.14-1.59-4.87-1.74-1.59-.1-3.18-.02-4.77-.06-.02-2.43,0-4.85,0-7.28,2.05-.07,4.14.19,6.15-.33,1.28-.34,2.56-1.09,3.1-2.35.51-1.07.38-2.29.39-3.44,0-1.06-.3-2.19-1.08-2.95-1.07-1.07-2.68-1.36-4.14-1.32-1.44-.02-2.96.44-3.97,1.5-.93.93-1.4,2.23-1.51,3.52-3.4.03-6.81,0-10.21.01.12-3.1,1.55-6.08,3.78-8.21,2.53-2.42,5.93-3.74,9.35-4.21"/>
      <path class="cls-2" d="M124.35,86.39c1.73,0,3.46,0,5.19,0,1.11,4.42,2.24,8.84,3.32,13.27,1.18-4.42,2.34-8.84,3.51-13.27,1.67,0,3.34,0,5.01,0,0,5.5,0,11.01,0,16.51-1.3,0-2.61,0-3.91,0,0-2.63,0-5.25,0-7.88-.01-.89.04-1.78-.07-2.67-.82,3.53-1.81,7.02-2.69,10.54-1.3,0-2.6,0-3.9,0-.95-3.68-1.94-7.34-2.89-11.02-.05,3.67,0,7.35-.02,11.02-1.18,0-2.36,0-3.55,0,0-5.5,0-11.01,0-16.51"/>
      <path class="cls-2" d="M143.5,102.9c1.58-5.5,3.15-11.01,4.72-16.51,1.83.03,3.69-.06,5.5.04,1.67,5.48,3.32,10.98,4.97,16.47-1.4,0-2.8,0-4.2,0-.33-1.2-.67-2.4-1.01-3.61-1.65,0-3.3,0-4.94,0-.32,1.2-.61,2.41-.92,3.61-1.37,0-2.74,0-4.11,0M150.96,89.12c-.56,2.37-1.12,4.73-1.67,7.1,1.13,0,2.26,0,3.38,0-.57-2.37-1.15-4.74-1.71-7.11"/>
      <path class="cls-2" d="M160.4,86.4c1.5,0,3,0,4.51,0,.93,1.74,1.86,3.49,2.77,5.24,1.03-1.71,1.91-3.5,2.89-5.25,1.45,0,2.91,0,4.36,0-1.56,2.48-3.13,4.95-4.69,7.43,1.73,3.03,3.47,6.05,5.21,9.08-1.55,0-3.11,0-4.66,0-.98-1.95-1.99-3.89-2.97-5.83-.07-.12-.15-.23-.23-.33-1.05,2.07-2.14,4.11-3.19,6.17-1.51,0-3.03,0-4.55,0,1.75-2.9,3.48-5.82,5.22-8.73-1.56-2.59-3.11-5.19-4.67-7.78"/>
      <path class="cls-10" d="M91.58,10.2C97.23,6.82,102.87,3.4,108.52,0c0,26.21-.02,52.43.01,78.64-2.58,1.57-5.18,3.12-7.76,4.68-3.1,1.85-6.18,3.76-9.3,5.57.03-25.69,0-51.37.01-77.06.04-.54-.12-1.13.1-1.64"/>
      <path class="cls-11" d="M108.52,0C133.49,0,158.46,0,183.42,0c1.54-.02,3.06.63,4.12,1.74,1,1.05,1.6,2.48,1.59,3.93.01,3.94,0,7.88,0,11.81.01,20.38.01,40.77,0,61.15-26.87.05-53.75,0-80.62.02-.03-26.22,0-52.43-.01-78.64M144.85,16.82c-3.43.46-6.83,1.79-9.35,4.21-2.23,2.13-3.66,5.12-3.78,8.21,3.41,0,6.81.02,10.21-.01.11-1.29.58-2.59,1.51-3.52,1.02-1.06,2.53-1.51,3.97-1.5,1.46-.04,3.07.25,4.14,1.32.79.76,1.08,1.89,1.08,2.95-.02,1.15.12,2.36-.39,3.44-.54,1.26-1.82,2.01-3.1,2.35-2.01.52-4.1.26-6.15.33,0,2.43-.02,4.85,0,7.28,1.59.04,3.18-.04,4.77.06,1.73.15,3.53.58,4.87,1.74,1.1.94,1.6,2.43,1.55,3.85.04,1.54.03,3.19-.85,4.53-.93,1.49-2.7,2.2-4.38,2.35-1.88.16-3.94-.06-5.48-1.25-1.2-.9-1.88-2.34-2.06-3.81-3.4,0-6.81,0-10.21,0,.17,1.53.54,3.05,1.17,4.47,1.08,2.54,3.06,4.68,5.48,6.01,2.95,1.67,6.38,2.25,9.74,2.35,4,.11,8.12-.62,11.59-2.7,2.46-1.46,4.53-3.71,5.39-6.47.65-1.93.41-3.99.45-6,.03-2.06-.79-4.12-2.21-5.61-1.86-2.02-4.5-3.15-7.15-3.69,2.94-.75,5.83-2.52,7.15-5.35.72-1.48.53-3.15.55-4.73.02-1.74-.44-3.48-1.37-4.95-1.47-2.35-3.89-3.94-6.46-4.87-3.4-1.22-7.09-1.44-10.66-.99"/>
      <path class="cls-8" d="M189.15,17.48c2.58,0,5.16,0,7.74,0,0,31.46,0,62.92,0,94.38-29.87,0-59.74,0-89.61,0-1.05.03-2.14-.02-3.11-.48-2.02-.87-3.42-2.98-3.39-5.19,0-7.62,0-15.24,0-22.86,2.58-1.57,5.18-3.11,7.76-4.68,26.87-.02,53.75.02,80.62-.02.01-20.38.01-40.76,0-61.15M124.35,86.39c0,5.5,0,11.01,0,16.51,1.18,0,2.36,0,3.55,0,.01-3.67-.03-7.35.02-11.02.95,3.68,1.94,7.34,2.89,11.02,1.3,0,2.6,0,3.9,0,.88-3.52,1.87-7.01,2.69-10.54.11.89.06,1.78.07,2.67,0,2.63,0,5.25,0,7.88,1.3,0,2.61,0,3.91,0,0-5.5,0-11.01,0-16.51-1.67,0-3.34,0-5.01,0-1.17,4.42-2.33,8.85-3.51,13.27-1.09-4.43-2.21-8.85-3.32-13.27-1.73.01-3.46,0-5.19,0M143.5,102.9c1.37,0,2.74,0,4.11,0,.31-1.2.6-2.41.92-3.61,1.65.01,3.3,0,4.94,0,.34,1.2.68,2.4,1.01,3.61,1.4,0,2.8,0,4.2,0-1.64-5.49-3.29-10.99-4.97-16.47-1.81-.1-3.67-.01-5.5-.04-1.57,5.5-3.14,11.01-4.72,16.51M160.4,86.4c1.56,2.59,3.11,5.19,4.67,7.78-1.74,2.91-3.47,5.83-5.22,8.73,1.52,0,3.03,0,4.55,0,1.05-2.06,2.14-4.11,3.19-6.17.09.1.16.21.23.33.98,1.95,1.99,3.88,2.97,5.83,1.55,0,3.11,0,4.66,0-1.74-3.02-3.48-6.05-5.21-9.08,1.55-2.48,3.13-4.95,4.69-7.43-1.45,0-2.91,0-4.36,0-.98,1.74-1.86,3.53-2.89,5.25-.92-1.75-1.84-3.5-2.77-5.24-1.5,0-3,0-4.51,0"/>
      <path class="cls-8" d="M150.96,89.12c.56,2.37,1.15,4.74,1.71,7.11-1.13,0-2.26,0-3.38,0,.55-2.37,1.11-4.74,1.67-7.1"/>
    </g>
    <g>
      <path id="Path" class="cls-3" d="M26.61,102.73c-2.46,1.17-7.42,1.68-12-6.28-.39-.68-.77-1.42-1.16-2.24,1.26.02,2.51.13,3.76.31,8.05,1.19,9.46,5.62,9.4,8.21Z"/>
      <path id="Path-2" data-name="Path" class="cls-3" d="M21.6,71.51c1.58.99,2.78,2.5,3.4,4.26.37,1.13.43,2.35.17,3.51-1.48.39-3.04.27-4.44-.33-1.7-.8-3.12-2.09-4.09-3.7-.94-1.5-1.68-3.12-2.21-4.82-.2-.62-.39-1.27-.57-2,.86.19,1.66.39,2.4.6,1.9.54,3.7,1.37,5.34,2.48Z"/>
      <path id="Path-3" data-name="Path" class="cls-3" d="M23.26,85.49c.89.85,1.55,1.91,1.92,3.09.29.97.36,2,.22,3-1.37.46-2.86.48-4.24.05-1.25-.42-2.39-1.12-3.32-2.05-1.59-1.67-2.82-3.64-3.64-5.8-.28-.67-.56-1.42-.84-2.25,1.13.16,2.14.36,3.07.58,2.54.49,4.9,1.66,6.83,3.38Z"/>
      <path id="Path-4" data-name="Path" class="cls-3" d="M29.88,55.93c-2.94.09-8.29-1.71-8.6-13.08,10.32,4.78,9.86,10.4,8.6,13.08Z"/>
      <path id="Path-5" data-name="Path" class="cls-3" d="M35.16,45.9c-2.94-.2-8.09-2.51-7.29-13.86,9.8,5.76,8.79,11.32,7.29,13.86Z"/>
      <path id="Path-6" data-name="Path" class="cls-3" d="M26.48,61.43c1,1.73,1.18,3.82.51,5.7-2.08.28-4.17-.42-5.68-1.88-1.84-1.72-3.49-4.83-4.17-10.3,5.34,1.89,8.08,4.24,9.34,6.48Z"/>
      <path id="Path-7" data-name="Path" class="cls-3" d="M261,73.03c-2-12.27-13.26-38.5-19.29-41.58,28.65,43.77,17.2,75.31,9.28,87,4.01-.42,13.49-24.08,10.01-45.42Z"/>
      <path id="Path-8" data-name="Path" class="cls-3" d="M261.72,102.73c2.46,1.17,7.42,1.68,12-6.28.39-.68.77-1.42,1.16-2.24-1.26.02-2.51.13-3.76.31-8.05,1.19-9.46,5.62-9.4,8.21Z"/>
      <path id="Path-9" data-name="Path" class="cls-3" d="M266.73,71.51c-1.56,1.01-2.74,2.51-3.35,4.26-.36,1.14-.42,2.35-.17,3.51,1.48.39,3.04.27,4.44-.33,1.7-.8,3.13-2.09,4.09-3.7.97-1.5,1.73-3.12,2.26-4.82.2-.62.39-1.27.57-2-.86.19-1.66.39-2.4.6-1.93.53-3.77,1.37-5.44,2.48Z"/>
      <path id="Path-10" data-name="Path" class="cls-3" d="M265.07,85.49c-.89.85-1.54,1.92-1.91,3.09-.28.95-.36,1.96-.22,2.94,1.37.46,2.85.48,4.23.05,1.25-.4,2.39-1.08,3.33-1.99,1.58-1.66,2.82-3.61,3.64-5.75.29-.69.58-1.44.84-2.25-1.12.16-2.14.36-3.07.58-2.54.48-4.9,1.63-6.84,3.33Z"/>
      <path id="Path-11" data-name="Path" class="cls-3" d="M230.13,18.15c1.78,11.23,7.32,12.31,10.23,11.84.89-2.81.64-8.41-10.23-11.84Z"/>
      <path id="Path-12" data-name="Path" class="cls-3" d="M247.48,35.04c2.87-.68,7.58-3.81,4.93-14.87-8.78,7.3-6.88,12.61-4.93,14.87Z"/>
      <path id="Path-13" data-name="Path" class="cls-3" d="M258.48,55.93c2.94.09,8.3-1.71,8.61-13.08-10.36,4.78-9.89,10.4-8.61,13.08Z"/>
      <path id="Path-14" data-name="Path" class="cls-3" d="M256.19,103.19c-.35-2.93-2.94-8-14.22-6.54,6.28,9.48,11.76,8.17,14.22,6.54Z"/>
      <path id="Path-15" data-name="Path" class="cls-3" d="M253.17,45.9c2.94-.2,8.09-2.51,7.3-13.86-9.81,5.76-8.8,11.32-7.3,13.86Z"/>
      <path id="Path-16" data-name="Path" class="cls-3" d="M261.88,61.43c-.99,1.73-1.18,3.81-.52,5.7,2.07.26,4.14-.43,5.64-1.87,1.83-1.72,3.48-4.83,4.17-10.3-5.35,1.88-8.06,4.23-9.29,6.47Z"/>
      <path id="Path-17" data-name="Path" class="cls-3" d="M248.11,51.17c.54-.49,1-1.07,1.36-1.7-1.08-1.62-3.43-3.6-7.59-3-2.04.37-4,1.1-5.79,2.15-.73.41-1.49.87-2.27,1.4,2.44,1.51,5.16,2.5,8,2.9,2.25.37,4.55-.27,6.29-1.75Z"/>
      <path id="Path-18" data-name="Path" class="cls-3" d="M244,39c-1.5-2.24-5.45-5.18-13.29-.84-.75.42-1.53.89-2.35,1.45,2.49,1.55,5.29,2.54,8.2,2.91,4.22.36,6.44-1.82,7.44-3.52Z"/>
      <path id="Path-19" data-name="Path" class="cls-3" d="M253.48,61.63c.47-.38.88-.81,1.24-1.29-.94-1.84-3.25-4.26-8-3.77-2.24.3-4.41.98-6.43,2-.38.18-.76.36-1.15.57,2.02,1.57,4.3,2.79,6.73,3.59,3.61,1.04,6.07.13,7.61-1.1Z"/>
      <path id="Path-20" data-name="Path" class="cls-3" d="M256.16,83.38c.77-.3,1.48-.74,2.1-1.29-.3-1.07-.84-2.05-1.59-2.87-.57-.62-1.25-1.13-2-1.51-2.29-1.01-4.82-1.32-7.28-.89-1.39.17-2.76.44-4.11.82,5.72,6.46,10.13,6.81,12.88,5.74Z"/>
      <path id="Path-21" data-name="Path" class="cls-3" d="M257.16,71.13c-1.01-2.6-3.44-4.37-6.22-4.55-2.25-.28-5.22.07-9.14,1.55l.58.53c1.19,1.07,2.47,2.03,3.83,2.86,5.73,3.32,9.32,1.36,10.95-.39Z"/>
      <path id="Path-22" data-name="Path" class="cls-3" d="M257.63,92.7c-.35-2.93-2.95-8-14.23-6.54,6.29,9.48,11.77,8.18,14.23,6.54Z"/>
      <path id="Path-23" data-name="Path" class="cls-3" d="M27.35,73.03c2-12.27,13.27-38.5,19.3-41.58-28.65,43.77-17.2,75.31-9.28,87-4.06-.42-13.55-24.08-10.02-45.42Z"/>
      <path id="Path-24" data-name="Path" class="cls-3" d="M58.2,18.15c-1.78,11.23-7.32,12.31-10.2,11.84-.92-2.81-.65-8.41,10.2-11.84Z"/>
      <path id="Path-25" data-name="Path" class="cls-3" d="M40.9,35.04c-2.9-.68-7.57-3.81-4.9-14.87,8.71,7.3,6.8,12.61,4.9,14.87Z"/>
      <path id="Path-26" data-name="Path" class="cls-3" d="M32.15,103.19c.33-2.94,2.94-7.94,14.22-6.54-6.28,9.48-11.77,8.17-14.22,6.54Z"/>
      <path id="Path-27" data-name="Path" class="cls-3" d="M40.22,51.17c-.53-.49-.99-1.07-1.35-1.7,1.08-1.62,3.43-3.6,7.59-3,2.04.37,4,1.1,5.79,2.15.72.41,1.48.87,2.26,1.4-2.44,1.51-5.16,2.5-8,2.9-2.25.37-4.55-.27-6.29-1.75Z"/>
      <path id="Path-28" data-name="Path" class="cls-3" d="M44.38,39c1.5-2.24,5.45-5.18,13.29-.84.75.42,1.53.89,2.35,1.45-2.49,1.55-5.29,2.54-8.2,2.91-4.26.36-6.48-1.82-7.44-3.52Z"/>
      <path id="Path-29" data-name="Path" class="cls-3" d="M34.87,61.63c-.46-.38-.87-.81-1.23-1.29.94-1.84,3.25-4.26,8-3.77,2.24.3,4.41.98,6.43,2,.38.18.76.36,1.15.57-2.02,1.57-4.3,2.79-6.73,3.59-3.62,1.04-6.09.13-7.62-1.1Z"/>
      <path id="Path-30" data-name="Path" class="cls-3" d="M32.18,83.38c-.77-.3-1.48-.74-2.1-1.29.3-1.06.85-2.03,1.59-2.84.57-.62,1.25-1.13,2-1.51,2.3-1.02,4.85-1.33,7.33-.89,1.39.17,2.76.44,4.11.82-5.77,6.43-10.18,6.78-12.93,5.71Z"/>
      <path id="Path-31" data-name="Path" class="cls-3" d="M31.17,71.13c1.02-2.59,3.44-4.37,6.22-4.55,2.25-.28,5.22.07,9.14,1.55l-.58.53c-1.18,1.07-2.46,2.03-3.83,2.86-5.73,3.32-9.32,1.36-10.95-.39Z"/>
      <path id="Path-32" data-name="Path" class="cls-3" d="M30.7,92.7c.36-2.93,3-8,14.23-6.54-6.28,9.48-11.77,8.18-14.23,6.54Z"/>
    </g>
    <g>
      <g>
        <g>
          <path id="Path-33" data-name="Path" class="cls-1" d="M216.63,196.79s22.8,6.98,46.08,18.86c1,.5,2.19.4,3.1-.25.9-.65,1.37-1.75,1.21-2.86l-3.11-21,17-9.25c.98-.54,1.58-1.58,1.55-2.7-.03-1.12-.67-2.13-1.67-2.62-7.31-3.55-20.31-9.43-25.88-9.43"/>
          <path id="Path-34" data-name="Path" class="cls-1" d="M68.5,196.31s-23.02,7.46-46.3,19.34c-1.47.73-3.25.14-4-1.32-.29-.56-.39-1.2-.29-1.83l3.12-21-16.98-9.25c-.98-.54-1.58-1.58-1.55-2.7.03-1.12.67-2.13,1.67-2.62,7.31-3.55,20.25-9.43,25.83-9.43"/>
        </g>
        <g>
          <path id="Path-35" data-name="Path" class="cls-6" d="M63.48,182.29s-31.48,4.52-27.48,12.52c4.62,9.23,32.5,1.5,32.5,1.5l-5.02-14.02Z"/>
          <path id="Path-36" data-name="Path" class="cls-6" d="M221.48,183.29s31.15,4.5,27.15,12.5c-4.62,9.23-32,1-32,1l4.85-13.5Z"/>
        </g>
        <g id="game-artist">
          <path id="Path-37" data-name="Path" class="cls-1" d="M249,190.81c-69.22-22.27-144.52-23.5-213.65-.72l-14.87-45.95c-1.88-5.92,1.25-12.26,7.09-14.37l.47-.17c75.56-22.46,156.73-22.54,229.96.04,2.88,1.02,5.24,3.15,6.55,5.91s1.47,5.93.45,8.82c-.02.05-.04.11-.06.16l-15.94,46.28Z"/>
        </g>
      </g>
      <g>
        <path d="M60.22,161.89c.75,3.24-1.65,5.46-6.03,6.57-4.35,1.1-7.55.28-8.43-2.92-.55-2.01-.83-3.02-1.38-5.03,2.09-.57,3.14-.85,5.24-1.39.4,1.55.6,2.33,1,3.88.27,1.05,1.25,1.63,2.52,1.31,1.3-.33,1.86-1.26,1.6-2.32-.34-1.4-.52-2.1-.86-3.5-.25-1.03-1.24-1.65-2.57-1.31-.82.21-1.23.31-2.05.52-.42-1.64-.63-2.45-1.06-4.09.84-.22,1.26-.32,2.11-.54,1.34-.34,1.92-1.31,1.66-2.33-.27-1.11-.41-1.67-.68-2.78-.26-1.06-1.27-1.64-2.63-1.3-1.33.34-1.92,1.29-1.65,2.34.34,1.31.51,1.97.85,3.28-2.14.55-3.21.84-5.34,1.42-.45-1.63-.67-2.44-1.11-4.07-.88-3.21,1.54-5.95,6.21-7.12,4.7-1.18,8.15.08,8.9,3.32.3,1.28.44,1.93.74,3.21.48,2.09-.41,3.79-2.31,5.01,2.24.23,3.77,1.35,4.25,3.44.41,1.77.61,2.65,1.02,4.42Z"/>
        <path d="M64.14,165.56c-2.23-10.04-3.34-15.07-5.57-25.11,4.29-.95,6.44-1.4,10.75-2.22,4.57-.88,5.22,2.13,5.69,4.76,1.01,5.63,1.52,8.44,2.53,14.06.47,2.63.91,5.62-3.36,6.44-4.02.77-6.03,1.19-10.04,2.08ZM69.71,144.79c-.27-1.4-.85-2.11-2.23-1.84-1.01.2-1.51.3-2.52.51,1.39,6.72,2.08,10.07,3.47,16.79.96-.2,1.44-.3,2.41-.49,1.31-.26,1.57-1.13,1.29-2.53-.97-4.98-1.45-7.46-2.42-12.44Z"/>
        <path d="M100.86,154.9c.38,3.3-2.27,5.25-6.72,5.85-4.42.6-7.47-.58-7.98-3.86-.3-1.94-.45-2.91-.76-4.85,2.13-.33,3.2-.49,5.33-.79.21,1.48.31,2.21.52,3.69.15,1.08,1.02,1.74,2.31,1.56,1.32-.18,2.01-1.08,1.87-2.16-.11-.84-.16-1.26-.27-2.09-.54-4.16-10-1.77-11.02-8.34-.21-1.33-.31-1.99-.52-3.31-.51-3.28,2.18-5.73,6.93-6.38,4.78-.65,8.05,1,8.43,4.3.17,1.49.26,2.24.43,3.73-2.18.25-3.28.38-5.46.67-.15-1.15-.22-1.72-.37-2.87-.14-1.08-1.07-1.77-2.46-1.59-1.35.18-2.04,1.07-1.89,2.14.09.6.13.9.21,1.51.64,4.52,10.06.97,10.95,8.74.19,1.62.28,2.43.46,4.04Z"/>
        <path d="M106.4,158.77c-.86-8.53-1.29-12.79-2.15-21.32-1.48.15-2.22.23-3.71.39-.19-1.7-.28-2.56-.47-4.26,5.24-.58,7.87-.82,13.13-1.22.13,1.71.2,2.56.33,4.27-1.5.11-2.25.17-3.75.3.74,8.54,1.1,12.81,1.84,21.35-2.09.18-3.13.28-5.22.49Z"/>
        <path d="M125.35,131.62c2.24-.1,3.36-.14,5.61-.21.26,8.51.39,12.76.65,21.27.1,3.32-2.67,5.04-7.15,5.26-4.44.22-7.41-1.2-7.64-4.52-.6-8.49-.9-12.73-1.5-21.22,2.24-.16,3.36-.23,5.6-.36.45,8.01.68,12.02,1.13,20.03.06,1.09.9,1.85,2.2,1.78,1.33-.07,2.06-.88,2.01-1.96-.36-8.03-.54-12.05-.9-20.08Z"/>
        <path d="M135,157.03c-.22-10.29-.33-15.43-.55-25.71,4.37-.09,6.55-.11,10.92-.08,4.64.03,4.68,3.1,4.63,5.78-.11,5.71-.16,8.57-.27,14.29-.05,2.67-.2,5.69-4.53,5.66-4.08-.03-6.12-.01-10.2.07ZM144.47,137.75c0-1.43-.42-2.24-1.82-2.24-1.02,0-1.54,0-2.56,0,.05,6.86.07,10.29.12,17.15.98,0,1.47,0,2.45,0,1.33,0,1.75-.8,1.76-2.23.02-5.07.03-7.6.06-12.67Z"/>
        <path d="M152.8,157.08c.28-10.28.43-15.43.71-25.71,2.24.06,3.37.1,5.61.2-.43,10.28-.65,15.42-1.08,25.7-2.09-.09-3.14-.12-5.24-.18Z"/>
        <path d="M162.23,136.5c.17-3.32,3.3-5.17,8.06-4.83,4.8.34,7.67,2.62,7.37,5.93-.6,6.57-.9,9.85-1.5,16.43-.3,3.31-3.26,4.68-7.73,4.36-4.44-.32-7.21-2.09-7.04-5.41.33-6.59.5-9.88.84-16.47ZM172.07,138c.08-1.08-.68-1.95-2.08-2.05-1.36-.1-2.21.63-2.28,1.71-.38,5.77-.56,8.65-.94,14.41-.07,1.08.67,1.94,1.96,2.03,1.33.09,2.15-.62,2.23-1.7.44-5.76.66-8.64,1.1-14.4Z"/>
        <path d="M200.62,161.58c1.28-7.96,1.93-11.94,3.21-19.9-2.28,7.8-3.4,11.71-5.57,19.53-2.65-.41-3.98-.6-6.63-.96.14-8.12.18-12.18.21-20.31-1.03,8-1.55,12-2.58,19.99-1.87-.24-2.81-.36-4.68-.57,1.18-10.22,1.78-15.33,2.96-25.55,3.5.41,5.25.63,8.75,1.12-.12,7.69-.2,11.53-.41,19.21,2-7.42,3.02-11.12,5.11-18.52,3.48.53,5.21.81,8.68,1.42-1.77,10.13-2.66,15.2-4.43,25.34-1.85-.32-2.77-.48-4.63-.78Z"/>
        <path d="M217.82,164.79c.17-2.1.26-3.15.42-5.24-1.68-.35-2.52-.52-4.2-.85-.65,2-.98,3-1.63,5-2.07-.4-3.1-.6-5.17-.97,3.18-9.88,4.81-14.81,8.18-24.64,3.85.73,5.77,1.12,9.6,1.95-.74,10.37-1.15,15.54-2.08,25.88-2.04-.46-3.07-.69-5.12-1.12ZM219.52,142.49c-1.67,4.83-2.49,7.25-4.11,12.1,1.27.25,1.9.38,3.17.64.4-5.09.59-7.64.94-12.74Z"/>
        <path d="M233.47,168.46c-.36-2.7-.55-4.05-.95-6.75-1.61,2.2-2.41,3.3-3.99,5.51-2.05-.5-3.08-.74-5.13-1.21,3.16-4.56,4.78-6.82,8.08-11.31-.87-5.5-1.35-8.26-2.37-13.77,2.2.5,3.3.76,5.5,1.29.46,2.71.68,4.06,1.1,6.77,1.66-2.18,2.5-3.27,4.19-5.44,2.19.57,3.28.86,5.47,1.45-3.5,4.37-5.22,6.58-8.59,11.02.79,5.52,1.15,8.28,1.8,13.78-2.04-.56-3.06-.83-5.11-1.36Z"/>
      </g>
    </g>
    <g>
      <rect class="cls-9" x="131.8" y="184.95" width="9.74" height="17.68"/>
      <rect class="cls-9" x="131.8" y="209.77" width="9.74" height="8.7"/>
      <g class="cls-12">
        <path class="cls-4" d="M109,184.57h9.74v17.11c-.05,5.36,2.65,8.25,7.19,8.05v8.88c-2.04.23-4.28.24-6.36-.15-6.46-1.2-10.62-6.89-10.57-14.69v-19.19Z"/>
        <polygon class="cls-5" points="147.5 184.62 175.97 184.62 161.65 209.73 175.45 209.68 175.45 218.62 145.74 218.67 159.92 193.61 147.5 193.61 147.5 184.62"/>
      </g>
    </g>
  </g>
</svg>